<svg xmlns="http://www.w3.org/2000/svg" version="1.1" xmlns:xlink="http://www.w3.org/1999/xlink" xmlns:svgjs="http://svgjs.dev/svgjs" width="1440" height="560" preserveAspectRatio="none" viewBox="0 0 1440 560">
  <g mask="url(&quot;#SvgjsMask1000&quot;)" fill="none">
      <path d="M -352.3600052170473,404 C -208.36,372.8 79.64,271.6 367.6399947829527,248 C 655.64,224.4 799.64,307 1087.6399947829527,286 C 1375.64,265 1737.17,104.6 1807.6399947829527,143 C 1878.11,181.4 1513.53,411 1440,478" stroke="rgba(229, 200, 13, 0.5019607843137255)" stroke-width="2"></path>
      <path d="M -472.10140644475086,355 C -328.1,303.6 -40.1,75.6 247.89859355524916,98 C 535.9,120.4 679.9,447 967.8985935552491,467 C 1255.9,487 1593.48,195 1687.8985935552491,198 C 1782.32,201 1489.58,425.2 1440,482" stroke="rgba(229, 200, 13, 0.5019607843137255)" stroke-width="2"></path>
      <path d="M -17.55036519235398,497 C 126.45,438 414.45,219 702.449634807646,202 C 990.45,185 1134.45,439 1422.449634807646,412 C 1710.45,385 2138.94,60 2142.449634807646,67 C 2145.96,74 1580.49,371 1440,447" stroke="rgba(74, 108, 247, 0.5019607843137255)" stroke-width="2"></path>
      <path d="M -841.1061387066818,208 C -697.11,223.6 -409.11,281.4 -121.10613870668176,286 C 166.89,290.6 310.89,224.6 598.8938612933182,231 C 886.89,237.4 1150.67,348.2 1318.8938612933182,318 C 1487.12,287.8 1415.78,127.6 1440,80" stroke="rgba(229, 200, 13, 0.5019607843137255)" stroke-width="2"></path>
  </g>
  <defs>
      <mask id="SvgjsMask1000">
          <rect width="1440" height="560" fill="#ffffff"></rect>
      </mask>
  </defs>
</svg>