<?xml version="1.0" encoding="UTF-8"?>
<svg version="1.1" xmlns="http://www.w3.org/2000/svg" width="27" height="29">
<path d="M0 0 C-0.33 1.32 -0.66 2.64 -1 4 C-5.75 5.125 -5.75 5.125 -8 4 C-7.814375 4.598125 -7.62875 5.19625 -7.4375 5.8125 C-7 8 -7 8 -8 11 C-7.34 11 -6.68 11 -6 11 C-6 11.99 -6 12.98 -6 14 C-5.67 13.01 -5.34 12.02 -5 11 C-4.34 11 -3.68 11 -3 11 C-3.66 13.64 -4.32 16.28 -5 19 C-4.67 18.34 -4.34 17.68 -4 17 C-2.0625 17.8125 -2.0625 17.8125 0 19 C0.33 19.99 0.66 20.98 1 22 C-1.95837455 24.1752754 -3.33911189 25.06743756 -7.0625 24.6875 C-8.031875 24.460625 -9.00125 24.23375 -10 24 C-11.32 24 -12.64 24 -14 24 C-16.25 23 -16.25 23 -18 22 C-17.34 20.68 -16.68 19.36 -16 18 C-14.68 18.33 -13.36 18.66 -12 19 C-12.350625 18.0925 -12.70125 17.185 -13.0625 16.25 C-14.34690102 11.79740981 -14.34690102 11.79740981 -13 9 C-12.01 8.67 -11.02 8.34 -10 8 C-12.05233685 5.7522025 -13.00667261 4.9977758 -16 4 C-16 4.66 -16 5.32 -16 6 C-15.01 6.33 -14.02 6.66 -13 7 C-13.639375 7.12375 -14.27875 7.2475 -14.9375 7.375 C-15.618125 7.58125 -16.29875 7.7875 -17 8 C-17.33 8.66 -17.66 9.32 -18 10 C-17.34 10.33 -16.68 10.66 -16 11 C-17.3125 12.5 -17.3125 12.5 -19 14 C-19.99 14 -20.98 14 -22 14 C-21.88490339 12.58249437 -21.75746342 11.16598831 -21.625 9.75 C-21.55539063 8.96109375 -21.48578125 8.1721875 -21.4140625 7.359375 C-20.98492887 4.914123 -20.21399362 3.15163097 -19 1 C-18.34 1 -17.68 1 -17 1 C-17 0.34 -17 -0.32 -17 -1 C-10.13055722 -4.57211025 -6.79104877 -3.65671857 0 0 Z M-14 0 C-13 2 -13 2 -13 2 Z M-12 3 C-11.34 3.66 -10.68 4.32 -10 5 C-10 4.34 -10 3.68 -10 3 C-10.66 3 -11.32 3 -12 3 Z M-12 11 C-11 14 -11 14 -11 14 Z " fill="#F7C711" transform="translate(22,4)"/>
<path d="M0 0 C3.66100646 3.66100646 3.96161063 8.02857687 4 13 C3.67 13.66 3.34 14.32 3 15 C2.01 15 1.02 15 0 15 C-0.12375 13.081875 -0.12375 13.081875 -0.25 11.125 C-0.45869931 8.94666582 -0.45869931 8.94666582 -1 7 C-2.92064793 5.4100567 -2.92064793 5.4100567 -5 5 C-3.35 3.35 -1.7 1.7 0 0 Z " fill="#F6C815" transform="translate(23,5)"/>
<path d="M0 0 C4.75 0.75 4.75 0.75 7 3 C7 3.66 7 4.32 7 5 C6.01 5 5.02 5 4 5 C3.67 5.66 3.34 6.32 3 7 C0 2.25 0 2.25 0 0 Z " fill="#F2C21F" transform="translate(9,19)"/>
<path d="M0 0 C0.99 0.33 1.98 0.66 3 1 C2.34 1.66 1.68 2.32 1 3 C0.67 2.01 0.34 1.02 0 0 Z " fill="#F6C822" transform="translate(2,21)"/>
<path d="M0 0 C0 3 0 3 0 3 Z " fill="#F3C726" transform="translate(23,21)"/>
<path d="M0 0 C1.485 0.99 1.485 0.99 3 2 C2.01 2 1.02 2 0 2 C0 1.34 0 0.68 0 0 Z " fill="#E9C42B" transform="translate(15,12)"/>
<path d="M0 0 C3 1 3 1 3 1 Z " fill="#FBC604" transform="translate(12,28)"/>
<path d="M0 0 C3 1 3 1 3 1 Z " fill="#FAC31B" transform="translate(1,19)"/>
<path d="M0 0 C2 1 2 1 2 1 Z " fill="#F2CA06" transform="translate(7,21)"/>
<path d="M0 0 C2 1 2 1 2 1 Z " fill="#F2C723" transform="translate(9,11)"/>
<path d="" fill="#ECC924" transform="translate(0,0)"/>
<path d="" fill="#F8C70A" transform="translate(0,0)"/>
<path d="" fill="#F8C717" transform="translate(0,0)"/>
<path d="" fill="#F5C319" transform="translate(0,0)"/>
<path d="" fill="#F5C708" transform="translate(0,0)"/>
</svg>
