<svg xmlns="http://www.w3.org/2000/svg" version="1.1" xmlns:xlink="http://www.w3.org/1999/xlink" xmlns:svgjs="http://svgjs.dev/svgjs" width="1260" height="4800" preserveAspectRatio="none" viewBox="0 0 1260 4800">
  <g mask="url(&quot;#SvgjsMask1016&quot;)" fill="none">
      <path d="M1097.8,4732.368C1149.344,4733.652,1193.1,4697.65,1218.008,4652.506C1242.029,4608.969,1244.008,4556.104,1218.654,4513.329C1193.774,4471.354,1146.561,4447.887,1097.8,4449.704C1051.976,4451.412,1013.996,4481.775,991.604,4521.792C969.79,4560.777,967.417,4606.879,987.533,4646.767C1009.99,4691.297,1047.943,4731.126,1097.8,4732.368" fill="rgba(255, 221, 0, 0.3137254901960784)" class="triangle-float2"></path>
      <path d="M874.404,1947.298C939.699,1945.935,996.95,1909.364,1031.615,1854.014C1068.858,1794.548,1089.401,1720.136,1054.955,1659.007C1020.03,1597.028,945.546,1575.269,874.404,1575.02C802.736,1574.769,728.128,1596.046,691.649,1657.735C654.633,1720.332,666.582,1799.326,705.396,1860.825C741.596,1918.182,806.594,1948.714,874.404,1947.298" fill="rgba(255, 221, 0, 0.3137254901960784)" class="triangle-float3"></path>
      <path d="M203.557,1938.972C283.881,1936.199,356.786,1897.66,400.477,1830.201C448.796,1755.597,476.684,1661.438,433.698,1583.638C389.638,1503.894,294.641,1475.781,203.557,1473.796C108.059,1471.715,4.416,1491.25,-44.639,1573.213C-94.675,1656.814,-73.115,1764.04,-18.407,1844.661C29.974,1915.958,117.446,1941.944,203.557,1938.972" fill="rgba(255, 221, 0, 0.3137254901960784)" class="triangle-float2"></path>
      <path d="M954.704,2907.354C1070.936,2908.818,1176.929,2847.886,1239.414,2749.868C1307.417,2643.194,1343.776,2506.929,1279.384,2398.037C1215.809,2290.528,1079.336,2260.229,954.704,2268.406C844.843,2275.614,751.127,2340.827,696.285,2436.293C641.671,2531.361,629.416,2646.725,682.149,2742.85C736.852,2842.567,840.977,2905.922,954.704,2907.354" fill="rgba(255, 221, 0, 0.3137254901960784)" class="triangle-float2"></path>
      <path d="M547.902,3616.258C605.397,3617.701,651.704,3573.57,679.135,3523.02C705.188,3475.01,708.163,3417.795,681.454,3370.147C654.146,3321.431,603.75,3288.733,547.902,3288.907C492.336,3289.081,441.734,3321.84,415.787,3370.976C391.395,3417.166,402.837,3470.718,427.607,3516.706C454.061,3565.821,492.134,3614.858,547.902,3616.258" fill="rgba(255, 221, 0, 0.3137254901960784)" class="triangle-float1"></path>
      <path d="M303.332,2346.704C380.24,2347.474,451.035,2308.001,491.899,2242.843C535.659,2173.067,554.712,2083.933,512.475,2013.224C471.041,1943.859,383.973,1922.126,303.332,1927.164C231.71,1931.638,171.212,1974.831,135.03,2036.804C98.499,2099.374,86.612,2175.462,121.19,2239.132C157.257,2305.544,227.762,2345.948,303.332,2346.704" fill="rgba(255, 221, 0, 0.3137254901960784)" class="triangle-float1"></path>
      <path d="M1396.444,4868.79C1521.117,4865.148,1602.401,4752.561,1663.331,4643.73C1722.396,4538.232,1764.48,4416.54,1710.099,4308.553C1650.769,4190.738,1528.252,4108.547,1396.444,4113.754C1271.593,4118.686,1182.371,4221.827,1122.959,4331.746C1067.046,4435.19,1047.75,4555.369,1101.11,4660.153C1159.733,4775.272,1267.313,4872.562,1396.444,4868.79" fill="rgba(255, 221, 0, 0.3137254901960784)" class="triangle-float1"></path>
      <path d="M917.454,1004.933C1001.714,999.735,1072.981,949.622,1116.177,877.09C1160.56,802.564,1174.628,713.694,1137.616,635.246C1094.326,543.491,1018.906,455.307,917.454,455.889C816.624,456.467,750.139,549.355,701.62,637.746C655.458,721.844,622.573,821.835,671.187,904.539C719.334,986.449,822.621,1010.783,917.454,1004.933" fill="rgba(255, 221, 0, 0.3137254901960784)" class="triangle-float1"></path>
      <path d="M528.299,2495.979C608.49,2494.147,661.126,2418.846,695.865,2346.547C725.463,2284.947,724.007,2215.675,691.993,2155.295C657.545,2090.324,601.683,2035.26,528.299,2030.505C446.815,2025.225,363.103,2060.148,323.218,2131.399C284.063,2201.348,307.623,2284.653,346.924,2354.52C387.213,2426.143,446.143,2497.856,528.299,2495.979" fill="rgba(255, 221, 0, 0.3137254901960784)" class="triangle-float3"></path>
      <path d="M285.666,3277.184C367.213,3280.366,427.015,3208.578,465.873,3136.814C502.541,3069.095,517.555,2987.805,478.194,2921.615C439.551,2856.632,361.265,2834.746,285.666,2833.775C207.915,2832.777,121.483,2848.225,84.38,2916.559C48.293,2983.021,91.419,3057.603,128.278,3123.64C166.564,3192.233,207.171,3274.121,285.666,3277.184" fill="rgba(255, 221, 0, 0.3137254901960784)" class="triangle-float2"></path>
      <path d="M490.547,3506.859C583.369,3505.393,656.607,3440.132,705.915,3361.475C759.378,3276.19,801.823,3173.524,755.541,3084.138C706.415,2989.26,597.046,2936.977,490.547,2945.532C395.608,2953.159,335.404,3037.63,290.288,3121.512C248.242,3199.685,222.137,3289.705,263.069,3368.467C306.936,3452.878,395.43,3508.361,490.547,3506.859" fill="rgba(255, 221, 0, 0.3137254901960784)" class="triangle-float3"></path>
      <path d="M1257.044,1156.164C1356.198,1148.569,1412.735,1052.959,1459.605,965.253C1502.841,884.347,1540.474,790.591,1494.978,710.934C1449.224,630.826,1349.29,611.793,1257.044,610.6C1162.016,609.371,1061.518,625.963,1008.211,704.641C948.732,792.428,941.333,908.162,992.513,1001.032C1045.393,1096.986,1147.804,1164.532,1257.044,1156.164" fill="rgba(255, 221, 0, 0.3137254901960784)" class="triangle-float3"></path>
      <path d="M996.884,1965.342C1053.024,1967.581,1107.188,1934.477,1131.321,1883.739C1152.977,1838.208,1130.222,1787.134,1101.284,1745.847C1077.19,1711.472,1038.832,1693.507,996.884,1691.933C951.424,1690.227,902.6,1699.219,877.969,1737.466C851.612,1778.393,857.297,1830.553,879.818,1873.71C904.39,1920.796,943.814,1963.226,996.884,1965.342" fill="rgba(255, 221, 0, 0.3137254901960784)" class="triangle-float1"></path>
      <path d="M1305.056,4919.881C1432.168,4926.848,1546.464,4844.561,1608.784,4733.555C1669.792,4624.885,1670.848,4490.852,1605.488,4384.743C1543.041,4283.363,1424.028,4235.654,1305.056,4240.466C1194.419,4244.941,1096.77,4310.131,1043.961,4407.454C993.549,4500.359,1006.011,4608.966,1053.998,4703.146C1107.793,4808.725,1186.74,4913.396,1305.056,4919.881" fill="rgba(255, 221, 0, 0.3137254901960784)" class="triangle-float1"></path>
      <path d="M622.768,629.929C682.848,634.043,740.826,604.128,772.8,553.097C806.862,498.734,816.126,428.91,783.229,373.834C751.015,319.902,685.523,299.034,622.768,301.918C565.181,304.565,512.072,336.095,485.972,387.496C461.968,434.769,478.5,488.553,504.555,534.727C531.204,581.954,568.668,626.224,622.768,629.929" fill="rgba(255, 221, 0, 0.3137254901960784)" class="triangle-float2"></path>
      <path d="M470.231,3991.816C504.161,3989.482,533.641,3970.932,551.252,3941.837C569.597,3911.529,576.576,3874.529,560.257,3843.083C542.69,3809.232,508.335,3787.332,470.231,3785.716C429.079,3783.971,387.382,3799.679,365.935,3834.844C343.676,3871.34,343.641,3918.883,367.298,3954.488C388.946,3987.07,431.205,3994.5,470.231,3991.816" fill="rgba(255, 221, 0, 0.3137254901960784)" class="triangle-float3"></path>
      <path d="M819.077,763.098C861.375,761.81,902.861,745.269,924.359,708.818C946.178,671.823,944.974,624.899,921.981,588.622C900.43,554.62,859.315,543.934,819.077,542.711C775.901,541.399,728.951,546.247,704.739,582.02C677.986,621.547,676.587,675.231,702.07,715.588C726.159,753.737,773.98,764.472,819.077,763.098" fill="rgba(255, 221, 0, 0.3137254901960784)" class="triangle-float3"></path>
      <path d="M635.511,2945.989C703.939,2947.528,770.6,2914.746,804.155,2855.091C837.133,2796.462,827.018,2724.818,792.337,2667.18C758.812,2611.463,700.536,2574.589,635.511,2574.811C570.856,2575.031,512.605,2612.108,480.525,2668.243C448.698,2723.937,448.254,2791.774,479.512,2847.79C511.602,2905.298,569.672,2944.508,635.511,2945.989" fill="rgba(255, 221, 0, 0.3137254901960784)" class="triangle-float1"></path>
      <path d="M677.203,4565.009C756.523,4568.658,848.698,4569.549,890.318,4501.927C933.088,4432.435,901.143,4343.522,854.901,4276.291C815.088,4218.407,747.43,4194.019,677.203,4192.078C602.54,4190.014,521.117,4202.57,481.631,4265.972C440.413,4332.155,452.869,4418.512,495.545,4483.765C534.458,4543.265,606.183,4561.742,677.203,4565.009" fill="rgba(255, 221, 0, 0.3137254901960784)" class="triangle-float2"></path>
      <path d="M941.248,1554.771C973.544,1552.965,998.37,1530.265,1015.326,1502.719C1033.392,1473.371,1048.902,1437.59,1031.794,1407.673C1014.609,1377.623,975.862,1373.63,941.248,1373.181C905.524,1372.717,865.976,1375.293,846.535,1405.267C825.786,1437.258,830.876,1479.68,851.282,1511.891C870.337,1541.969,905.698,1556.759,941.248,1554.771" fill="rgba(255, 221, 0, 0.3137254901960784)" class="triangle-float3"></path>
  </g>
  <defs>
      <mask id="SvgjsMask1016">
          <rect width="1260" height="4800" fill="#ffffff"></rect>
      </mask>
      <style>
          @keyframes float1 {
                  0%{transform: translate(0, 0)}
                  50%{transform: translate(-10px, 0)}
                  100%{transform: translate(0, 0)}
              }

              .triangle-float1 {
                  animation: float1 5s infinite;
              }

              @keyframes float2 {
                  0%{transform: translate(0, 0)}
                  50%{transform: translate(-5px, -5px)}
                  100%{transform: translate(0, 0)}
              }

              .triangle-float2 {
                  animation: float2 4s infinite;
              }

              @keyframes float3 {
                  0%{transform: translate(0, 0)}
                  50%{transform: translate(0, -10px)}
                  100%{transform: translate(0, 0)}
              }

              .triangle-float3 {
                  animation: float3 6s infinite;
              }
      </style>
  </defs>
</svg>