<svg xmlns="http://www.w3.org/2000/svg" version="1.1" xmlns:xlink="http://www.w3.org/1999/xlink" xmlns:svgjs="http://svgjs.dev/svgjs" width="1260" height="4800" preserveAspectRatio="none" viewBox="0 0 1260 4800">
  <g mask="url(&quot;#SvgjsMask1018&quot;)" fill="none">
      <path d="M1003.194,2551.586C1097.405,2557.091,1190.277,2505.727,1233.192,2421.677C1273.133,2343.452,1235.908,2255.933,1193.394,2179.076C1148.91,2098.656,1095.097,2006.037,1003.194,2005.883C911.152,2005.729,851.694,2095.448,811.889,2178.438C778.074,2248.94,779.799,2327.688,815.472,2397.269C855.08,2474.526,916.523,2546.522,1003.194,2551.586" fill="rgba(9, 30, 62, 0.5019607843137255)" class="triangle-float2"></path>
      <path d="M1225.905,4383.806C1282.209,4385.406,1344.633,4380.475,1375.214,4333.172C1407.78,4282.799,1399.227,4216.101,1367.056,4165.475C1337.096,4118.328,1281.74,4099.91,1225.905,4098.214C1166.168,4096.399,1099.686,4105.092,1069.074,4156.422C1037.96,4208.594,1056.115,4275.079,1090.605,4325.084C1120.523,4368.461,1173.232,4382.309,1225.905,4383.806" fill="rgba(9, 30, 62, 0.5019607843137255)" class="triangle-float2"></path>
      <path d="M927.296,4242.02C1012.1,4240.184,1077.905,4174.116,1116.491,4098.576C1151.433,4030.17,1146.996,3951.166,1110.346,3883.66C1071.72,3812.514,1008.245,3751.079,927.296,3750.099C844.983,3749.102,777.235,3807.653,736.402,3879.131C695.939,3949.961,685.386,4034.891,723.363,4107.085C764.035,4184.403,839.953,4243.911,927.296,4242.02" fill="rgba(9, 30, 62, 0.5019607843137255)" class="triangle-float3"></path>
      <path d="M1143.604,1699.714C1223.515,1695.031,1274.732,1624.338,1314.587,1554.917C1354.207,1485.905,1391.9,1404.73,1352.721,1335.466C1313.158,1265.523,1223.893,1249.334,1143.604,1252.642C1069.895,1255.678,1002.364,1289.576,962.342,1351.548C918.258,1419.81,896.464,1505.146,933.988,1577.222C974.042,1654.158,1057.015,1704.789,1143.604,1699.714" fill="rgba(9, 30, 62, 0.5019607843137255)" class="triangle-float2"></path>
      <path d="M416.811,1928.094C517.065,1928.173,601.669,1863.593,653.939,1778.043C708.932,1688.036,744.099,1573.872,687.692,1484.743C633.653,1399.355,517.86,1402.781,416.811,1403.354C317.239,1403.918,204.38,1403.603,151.196,1487.784C95.601,1575.781,126.561,1688.544,180.326,1777.671C232.047,1863.41,316.68,1928.015,416.811,1928.094" fill="rgba(9, 30, 62, 0.5019607843137255)" class="triangle-float2"></path>
      <path d="M469.376,3174.59C575.444,3178.711,683.832,3129.421,731.404,3034.53C775.563,2946.445,729.36,2846.707,674.929,2764.572C627.405,2692.859,555.405,2638.533,469.376,2639.137C384.303,2639.734,312.983,2694.745,268.759,2767.422C222.395,2843.616,200.968,2935.448,240.388,3015.455C284.42,3104.821,369.826,3170.723,469.376,3174.59" fill="rgba(9, 30, 62, 0.5019607843137255)" class="triangle-float3"></path>
      <path d="M350.881,1203.691C482.035,1202.241,625.611,1191.394,697.037,1081.386C773.536,963.564,762.519,805.82,685.475,688.354C614.799,580.597,479.747,553.249,350.881,553.615C222.843,553.978,90.943,583.95,19.559,690.244C-60.104,808.867,-86.27,969.128,-8.795,1089.191C64.323,1202.502,216.035,1205.182,350.881,1203.691" fill="rgba(9, 30, 62, 0.5019607843137255)" class="triangle-float3"></path>
      <path d="M989.912,2431.941C1028.775,2430.791,1056.389,2399.162,1076.312,2365.774C1096.914,2331.249,1113.629,2290.811,1095.558,2254.896C1075.982,2215.991,1033.462,2193.521,989.912,2194.065C947.257,2194.598,909.027,2219.954,888.741,2257.48C869.404,2293.25,873.777,2335.99,894.175,2371.165C914.499,2406.211,949.417,2433.139,989.912,2431.941" fill="rgba(9, 30, 62, 0.5019607843137255)" class="triangle-float3"></path>
      <path d="M163.704,801.764C203.695,803.338,242.271,785.071,263.701,751.27C286.752,714.91,293.579,668.264,271.934,631.05C250.389,594.007,206.503,577.196,163.704,579.343C124.495,581.31,91.163,606.354,72.776,641.04C55.553,673.529,58.366,711.894,76.473,743.899C94.888,776.449,126.335,800.293,163.704,801.764" fill="rgba(9, 30, 62, 0.5019607843137255)" class="triangle-float2"></path>
      <path d="M148.002,107.429C193.467,106.903,232.782,77.797,254.603,37.907C275.532,-0.352,276.648,-47.635,252.795,-84.142C230.798,-117.809,188.215,-125.759,148.002,-125.245C108.93,-124.745,69.494,-113.987,47.749,-81.521C23.411,-45.184,16.54,1.791,37.038,40.425C58.743,81.333,101.695,107.965,148.002,107.429" fill="rgba(9, 30, 62, 0.5019607843137255)" class="triangle-float3"></path>
      <path d="M470.602,3962.341C525.281,3961.798,575.019,3930.543,601.209,3882.541C626.353,3836.456,620.412,3781.262,594.223,3735.763C567.967,3690.147,523.231,3654.972,470.602,3655.629C418.919,3656.274,378.442,3694.246,352.215,3738.784C325.501,3784.148,310.789,3838.655,335.426,3885.179C361.45,3934.322,414.997,3962.893,470.602,3962.341" fill="rgba(9, 30, 62, 0.5019607843137255)" class="triangle-float1"></path>
      <path d="M680.821,5033.151C761.002,5031.657,832.179,4989.687,876.216,4922.665C925.782,4847.23,961.612,4751.96,917.22,4673.369C872.347,4593.926,772.061,4576.752,680.821,4576.743C589.56,4576.734,490.695,4594.709,444.338,4673.32C397.446,4752.839,421.695,4853.041,472.396,4930.188C518.01,4999.595,597.781,5034.698,680.821,5033.151" fill="rgba(9, 30, 62, 0.5019607843137255)" class="triangle-float2"></path>
      <path d="M306.392,2034.377C396.539,2028.244,481.952,1993.459,530.568,1917.298C583.322,1834.653,603.346,1729.627,555.578,1644.003C506.775,1556.523,406.461,1510.915,306.392,1515.461C213.56,1519.678,144.253,1587.108,93.559,1664.991C35.948,1753.499,-30.397,1860.372,22.326,1951.876C75.086,2043.445,200.955,2041.55,306.392,2034.377" fill="rgba(9, 30, 62, 0.5019607843137255)" class="triangle-float1"></path>
      <path d="M419.669,4872.071C546.804,4867.488,650.198,4774.351,705.588,4659.824C754.272,4559.165,731.771,4443.604,672.86,4348.568C617.467,4259.206,524.744,4202.214,419.669,4198.571C307.45,4194.68,196.655,4236.625,134.124,4329.888C63.69,4434.939,36.73,4569.904,95.667,4681.811C158.219,4800.583,285.519,4876.907,419.669,4872.071" fill="rgba(9, 30, 62, 0.5019607843137255)" class="triangle-float1"></path>
      <path d="M354.461,4519.335C384.969,4517.767,410.931,4499.167,426.096,4472.649C441.142,4446.34,444.849,4414.101,429.636,4387.888C414.476,4361.765,384.663,4348.936,354.461,4349.214C324.774,4349.487,297.843,4364.37,281.644,4389.249C263.636,4416.906,252.706,4451.933,268.826,4480.731C285.218,4510.014,320.946,4521.057,354.461,4519.335" fill="rgba(9, 30, 62, 0.5019607843137255)" class="triangle-float2"></path>
      <path d="M418.264,3600.534C502.4,3598.749,577.937,3554.77,622.686,3483.499C670.776,3406.907,696.387,3309.313,649.774,3231.813C604.155,3155.966,506.523,3136.979,418.264,3143.622C341.947,3149.366,280.976,3197.907,240.151,3262.642C195.623,3333.249,159.319,3418.66,198.244,3492.504C239.079,3569.97,330.714,3602.392,418.264,3600.534" fill="rgba(9, 30, 62, 0.5019607843137255)" class="triangle-float2"></path>
      <path d="M112.964,3252.552C198.711,3256.74,291.663,3231.822,333.345,3156.771C374.211,3083.188,337.351,2997.174,295.283,2924.271C253.192,2851.329,197.077,2779.008,112.964,2774.859C22.936,2770.419,-62.226,2824.431,-103.415,2904.607C-141.665,2979.062,-117.245,3065.842,-73.041,3136.923C-31.72,3203.369,34.81,3248.735,112.964,3252.552" fill="rgba(9, 30, 62, 0.5019607843137255)" class="triangle-float1"></path>
      <path d="M1345.254,1524.194C1451.386,1524.408,1556.507,1472.286,1603.306,1377.029C1646.134,1289.855,1599.942,1193.075,1548.361,1110.778C1500.96,1035.15,1434.424,969.206,1345.254,965.309C1249.603,961.128,1159.561,1010.344,1108.877,1091.57C1054.953,1177.989,1040.154,1286.604,1088.995,1375.994C1139.705,1468.804,1239.494,1523.981,1345.254,1524.194" fill="rgba(9, 30, 62, 0.5019607843137255)" class="triangle-float1"></path>
      <path d="M33.993,614.905C93.495,616.66,151.621,585.682,178.991,532.819C204.624,483.311,183.663,427.061,156.437,378.411C128.33,328.186,91.548,273.798,33.993,273.72C-23.642,273.641,-62.376,326.976,-89.031,378.077C-113.289,424.583,-121.089,478.134,-96.91,524.681C-70.727,575.086,-22.782,613.23,33.993,614.905" fill="rgba(9, 30, 62, 0.5019607843137255)" class="triangle-float2"></path>
      <path d="M602.545,1747.271C697.318,1752.599,807.435,1753.582,857.657,1673.033C909.583,1589.751,869.956,1484.63,818.35,1401.149C769.944,1322.846,694.535,1263.874,602.545,1260.354C504.198,1256.591,403.062,1296.967,356.106,1383.462C310.772,1466.97,339.414,1568.226,392.704,1646.896C439.311,1715.7,519.572,1742.607,602.545,1747.271" fill="rgba(9, 30, 62, 0.5019607843137255)" class="triangle-float2"></path>
  </g>
  <defs>
      <mask id="SvgjsMask1018">
          <rect width="1260" height="4800" fill="#ffffff"></rect>
      </mask>
      <style>
          @keyframes float1 {
                  0%{transform: translate(0, 0)}
                  50%{transform: translate(-10px, 0)}
                  100%{transform: translate(0, 0)}
              }

              .triangle-float1 {
                  animation: float1 5s infinite;
              }

              @keyframes float2 {
                  0%{transform: translate(0, 0)}
                  50%{transform: translate(-5px, -5px)}
                  100%{transform: translate(0, 0)}
              }

              .triangle-float2 {
                  animation: float2 4s infinite;
              }

              @keyframes float3 {
                  0%{transform: translate(0, 0)}
                  50%{transform: translate(0, -10px)}
                  100%{transform: translate(0, 0)}
              }

              .triangle-float3 {
                  animation: float3 6s infinite;
              }
      </style>
  </defs>
</svg>